<svg xmlns="http://www.w3.org/2000/svg" width="75" height="75" viewBox="0 0 75 75"><defs><style>.a{fill:#ebebec;}.b{fill:none;stroke:#731013;stroke-miterlimit:10;stroke-width:2px;}.c{fill:#f00699;stroke:rgba(0,0,0,0);}</style></defs><g transform="translate(-10033 -2168)"><circle class="a" cx="37.5" cy="37.5" r="37.5" transform="translate(10033 2168)"/><g transform="translate(9959.777 2164.52)"><path class="b" d="M87.164,33v7.423l6.03,6.03h10.488"/><path class="b" d="M90.182,28.121l7.641-7.641h24.253l11.148,11.148v7.051l-2.547,2.547"/><path class="b" d="M107.554,24.37h13.291l5.678,5.678"/><path class="b" d="M100.343,24.425c.036.132,6.662,6.662,6.662,6.662h6.372"/><path class="b" d="M96.379,28.328l4.305,4.305v4.236"/><path class="b" d="M91.924,37.3l4.787,4.787h7.3l4.764-4.764"/><path class="b" d="M108.251,48.823l6.627,6.627v5.256"/><path class="b" d="M110.522,43.128l8.593-8.314V28.948"/><path class="b" d="M116.413,42.5l7.009-7.009h5.131"/><path class="b" d="M113.035,48.4h4.724l3.746-3.746h4.675"/><path class="b" d="M119.365,65.091V56.764l3.305-3.305h3.9l3.577-3.577V47.157"/><circle class="c" cx="1.98" cy="1.98" r="1.98" transform="translate(88.202 26.141)"/><circle class="c" cx="1.98" cy="1.98" r="1.98" transform="translate(94.318 26.141)"/><circle class="c" cx="1.98" cy="1.98" r="1.98" transform="translate(89.731 35.188)"/><circle class="c" cx="1.98" cy="1.98" r="1.98" transform="translate(98.778 35.379)"/><circle class="c" cx="1.98" cy="1.98" r="1.98" transform="translate(98.364 22.446)"/><circle class="c" cx="1.98" cy="1.98" r="1.98" transform="translate(111.552 29.263)"/><circle class="c" cx="1.98" cy="1.98" r="1.98" transform="translate(107.029 35.379)"/><circle class="c" cx="1.98" cy="1.98" r="1.98" transform="translate(101.818 44.446)"/><circle class="c" cx="1.98" cy="1.98" r="1.98" transform="translate(106.186 46.675)"/><circle class="c" cx="1.98" cy="1.98" r="1.98" transform="translate(108.557 41.319)"/><circle class="c" cx="1.98" cy="1.98" r="1.98" transform="translate(114.323 40.763)"/><circle class="c" cx="1.98" cy="1.98" r="1.98" transform="translate(124.742 28.395)"/><circle class="c" cx="1.98" cy="1.98" r="1.98" transform="translate(126.81 33.446)"/><circle class="c" cx="1.98" cy="1.98" r="1.98" transform="translate(117.107 26.805)"/><circle class="c" cx="1.98" cy="1.98" r="1.98" transform="translate(105.575 22.391)"/><circle class="c" cx="1.98" cy="1.98" r="1.98" transform="translate(124.106 42.552)"/><circle class="c" cx="1.98" cy="1.98" r="1.98" transform="translate(111.142 46.37)"/><circle class="c" cx="1.98" cy="1.98" r="1.98" transform="translate(128.52 39.49)"/><circle class="c" cx="1.98" cy="1.98" r="1.98" transform="translate(128.4 45.097)"/><circle class="c" cx="1.98" cy="1.98" r="1.98" transform="translate(113.011 58.936)"/><circle class="c" cx="1.98" cy="1.98" r="1.98" transform="translate(117.385 63.111)"/><circle class="c" cx="1.98" cy="1.98" r="1.98" transform="translate(85.223 30.894)"/></g></g></svg>