<svg xmlns="http://www.w3.org/2000/svg" width="75" height="75" viewBox="0 0 75 75">
  <g id="Group_298" data-name="Group 298" transform="translate(-562 -1631)">
    <g id="Group_297" data-name="Group 297">
      <g id="Group_296" data-name="Group 296">
        <g id="Group_295" data-name="Group 295">
          <circle id="Ellipse_3" data-name="Ellipse 3" cx="37.5" cy="37.5" r="37.5" transform="translate(562 1631)" fill="#ebebec"/>
        </g>
      </g>
    </g>
    <g id="Group_268" data-name="Group 268" transform="translate(478.618 1520.344)">
      <g id="Group_265" data-name="Group 265" transform="translate(104.236 131.497)">
        <path id="Path_238" data-name="Path 238" d="M205.57,211.31v0a16.624,16.624,0,0,0-3.286-5.54l0,0v0h0a16.657,16.657,0,0,0-18.483-4.4h0q-.408.16-.8.34l-.123.056c-.071.032-.142.066-.212.1l-.241.119c-.1.052-.208.105-.311.159s-.181.1-.271.147l-.228.129c-.2.112-.387.228-.576.347-.084.052-.168.105-.251.16q-.153.1-.3.2c-.154.1-.305.213-.455.323-.082.06-.164.122-.245.184s-.162.125-.242.189l-.175.141c-.041.032-.08.066-.12.1l-.178.15c-.078.067-.155.133-.231.2q-.139.122-.275.25c-.049.045-.1.091-.147.138-.133.126-.265.255-.393.387l-.113.116q-.3.308-.581.632-.092.1-.18.211c-.139.164-.273.329-.4.5-.054.068-.107.139-.161.209-.07.093-.141.189-.209.284s-.136.19-.2.286q-.075.107-.147.216c-.057.085-.113.17-.168.257-.1.159-.2.321-.3.484-.044.075-.089.15-.131.226-.029.048-.055.1-.082.146-.041.07-.08.141-.117.212-.048.088-.1.178-.141.266s-.094.184-.14.276-.08.165-.119.247-.071.153-.105.228c-.02.043-.04.087-.059.131a0,0,0,0,0,0,0,.093.093,0,0,0-.006.014q-.29.653-.523,1.335l-.022.065c-.006.015-.01.03-.015.045-.028.08-.054.159-.079.24-.032.1-.063.2-.092.3s-.051.172-.074.258c-.015.053-.03.106-.043.159-.05.184-.1.37-.14.557-.018.077-.036.154-.052.23a.485.485,0,0,0-.011.05c-.013.059-.026.118-.037.178s-.022.111-.033.167-.02.108-.03.162-.018.1-.027.149q-.044.257-.08.516c-.007.053-.015.106-.021.16-.01.073-.019.147-.028.22s-.018.156-.025.235c0,.039-.009.078-.012.117l0,.024c-.008.088-.016.175-.022.264s-.015.2-.021.3l0,.051c-.006.1-.01.2-.014.3,0,.074-.006.148-.006.223,0,.017,0,.034,0,.051,0,.034,0,.068,0,.1,0,.093,0,.189,0,.283A16.659,16.659,0,0,0,194.4,232.882l.031-.008.268-.079.046-.014.305-.1.289-.1.067-.023q.143-.05.283-.1c.09-.033.178-.068.267-.1l.086-.034c.087-.034.173-.069.26-.106l.051-.021c.091-.038.181-.078.271-.117s.19-.085.284-.129c.122-.057.244-.117.364-.176l.257-.131c.093-.048.187-.1.278-.147.118-.065.235-.13.351-.2l.228-.133c.163-.1.323-.2.482-.3l.145-.094.176-.117c.053-.035.1-.071.156-.107q.189-.129.373-.265l.115-.085c.054-.04.106-.08.159-.121s.1-.072.142-.109l.051-.04c.07-.055.141-.112.21-.169.044-.035.088-.071.131-.108.133-.111.265-.224.395-.339.073-.065.145-.13.216-.2l.164-.153c.068-.064.134-.128.2-.193l.12-.118q.158-.157.311-.318l.128-.135q.137-.147.268-.3l.132-.15c.044-.05.087-.1.129-.152l.125-.149.13-.16c.041-.05.08-.1.121-.153s.085-.108.126-.162c.079-.1.157-.207.234-.313.042-.056.082-.113.122-.17l.116-.164.008-.011.1-.154q.057-.083.111-.166c.037-.055.074-.112.11-.168l.069-.109c.02-.032.041-.065.06-.1l.025-.04.139-.228c.031-.054.063-.106.093-.16l.083-.145a16.431,16.431,0,0,0,.954-1.978c.018-.045.036-.092.055-.138q.107-.271.2-.545c.023-.064.045-.129.067-.192q.146-.429.267-.868c.015-.052.029-.1.043-.155s.028-.1.041-.155.031-.123.047-.185q.162-.664.271-1.349c.007-.044.014-.089.021-.133.01-.069.02-.14.03-.21.012-.089.024-.178.034-.266s.019-.16.028-.24c.013-.126.025-.252.036-.378,0-.052.007-.1.012-.154v0c.008-.117.016-.234.022-.351.01-.191.017-.383.02-.575,0-.044,0-.09,0-.134s0-.119,0-.178A16.628,16.628,0,0,0,205.57,211.31Zm-1.372-.925h-4.153a1.85,1.85,0,1,1,0-3.7h1.8A15.786,15.786,0,0,1,204.2,210.385Zm-20.851-7.829a1.885,1.885,0,0,1,.05.474,3.653,3.653,0,0,0,3.7,3.655h1.85a1.85,1.85,0,1,1,0,3.7H183.4a3.7,3.7,0,0,0-3.7,3.8,1.881,1.881,0,0,1-1.958,1.753h-3.564A15.751,15.751,0,0,1,183.346,202.557ZM196.314,231.2a3.693,3.693,0,0,0-3.669-4.167H187.1a1.85,1.85,0,0,1,0-3.7h7.4a3.7,3.7,0,0,0,3.7-3.7,1.853,1.853,0,0,1,1.85-1.851h5.52A15.753,15.753,0,0,1,196.314,231.2Z" transform="translate(-173.224 -200.213)" fill="#aeffd4" style="isolation: isolate"/>
        <path id="Path_239" data-name="Path 239" d="M188.945,217H187.1a2.729,2.729,0,0,1-2.775-2.709,2.764,2.764,0,0,0-.528-1.693h0q-.408.16-.8.34l-.123.056c-.071.032-.142.066-.212.1l-.241.119c-.1.052-.208.105-.311.159s-.181.1-.271.147l-.228.129c-.2.112-.387.228-.576.347-.084.052-.168.105-.251.16q-.153.1-.3.2c-.154.1-.305.213-.455.323-.082.06-.164.122-.245.184s-.162.125-.242.189l-.175.141c-.041.032-.08.066-.12.1l-.178.15c-.078.067-.155.133-.231.2q-.139.122-.275.25c-.049.045-.1.091-.147.138-.133.126-.265.255-.393.387l-.113.116q-.3.308-.581.632-.092.1-.18.211c-.139.164-.273.329-.4.5-.054.068-.107.139-.161.209-.07.093-.141.189-.209.284s-.136.19-.2.286q-.075.107-.147.216c-.057.085-.113.17-.168.257-.1.159-.2.321-.3.484-.044.075-.089.15-.131.226-.029.048-.055.1-.082.146-.041.07-.08.141-.117.212-.048.088-.1.178-.141.266s-.094.184-.14.276-.08.165-.119.247-.071.153-.105.228c-.02.043-.04.087-.059.131a0,0,0,0,0,0,0,.093.093,0,0,0-.006.014q-.29.653-.523,1.335l-.022.065c-.006.015-.01.03-.015.045-.028.08-.054.159-.079.24-.032.1-.063.2-.092.3s-.051.172-.074.258c-.015.053-.03.106-.043.159-.05.184-.1.37-.14.557-.018.077-.036.154-.052.23a.484.484,0,0,0-.011.05c-.013.059-.026.118-.037.178s-.022.111-.033.167-.02.108-.03.162-.018.1-.027.149q-.044.257-.08.516c-.007.053-.015.106-.021.16-.01.073-.019.147-.028.22s-.018.156-.025.235c0,.039-.009.078-.012.117l0,.024c-.008.088-.016.175-.022.264s-.015.2-.021.3l0,.051c-.006.1-.01.2-.014.3,0,.074-.006.148-.006.223,0,.017,0,.034,0,.051,0,.034,0,.068,0,.1,0,.093,0,.189,0,.283h4.517a2.8,2.8,0,0,0,2.883-2.7,2.774,2.774,0,0,1,2.774-2.848h5.548a2.775,2.775,0,0,0,0-5.549Zm0,4.624H183.4a3.7,3.7,0,0,0-3.7,3.8,1.881,1.881,0,0,1-1.958,1.753h-3.564a15.751,15.751,0,0,1,9.17-13.378,1.885,1.885,0,0,1,.05.474,3.653,3.653,0,0,0,3.7,3.655h1.85a1.85,1.85,0,0,1,0,3.7Z" transform="translate(-173.224 -211.448)" fill="#fff"/>
        <path id="Path_240" data-name="Path 240" d="M308.945,380.2a2.774,2.774,0,0,0-2.775,2.775,2.774,2.774,0,0,1-2.775,2.774H296a2.775,2.775,0,0,0,0,5.549h5.549a2.775,2.775,0,0,1,1.753,4.926l.031-.008.268-.079.046-.014.305-.1.289-.1.067-.023q.143-.05.283-.1c.09-.033.178-.068.267-.1l.086-.034c.087-.034.173-.069.26-.106l.051-.021c.091-.038.181-.078.271-.117s.19-.085.284-.129c.122-.057.244-.117.364-.176l.257-.131c.093-.048.187-.1.278-.147.118-.065.235-.13.351-.2l.228-.133c.163-.1.323-.2.482-.3l.145-.094.176-.117c.053-.035.1-.071.156-.107q.189-.129.373-.265l.115-.085c.054-.04.106-.08.159-.121s.1-.072.142-.109l.051-.04c.07-.055.141-.112.21-.169.044-.035.088-.071.131-.108.133-.111.265-.224.395-.339.073-.065.145-.13.216-.2l.164-.153c.068-.064.134-.128.2-.193l.12-.118q.158-.157.311-.318l.128-.135c.092-.1.181-.2.268-.3l.132-.15c.044-.05.087-.1.129-.152l.125-.149.13-.16c.041-.05.08-.1.121-.153s.085-.108.126-.162c.079-.1.157-.207.234-.313.042-.056.082-.113.122-.17l.116-.164.008-.011.1-.154q.057-.083.111-.166c.037-.056.074-.112.11-.168l.069-.109.06-.1.025-.04.139-.228c.031-.054.063-.106.093-.16l.083-.145a16.437,16.437,0,0,0,.954-1.978c.018-.045.036-.092.055-.138q.107-.27.2-.545c.023-.064.045-.129.067-.192q.146-.429.267-.868c.015-.052.029-.1.043-.155s.028-.1.041-.155.031-.123.047-.185q.162-.664.271-1.349c.007-.044.014-.089.021-.133.01-.069.02-.14.03-.21.012-.089.024-.178.034-.266s.019-.16.028-.24c.013-.126.025-.252.036-.378,0-.052.007-.1.012-.154v0c.008-.117.016-.234.022-.351.01-.191.017-.383.02-.575,0-.044,0-.09,0-.134s0-.119,0-.178Zm-3.73,14.34a3.742,3.742,0,0,0,.03-.468,3.7,3.7,0,0,0-3.7-3.7H296a1.85,1.85,0,0,1,0-3.7h7.4a3.7,3.7,0,0,0,3.7-3.7,1.853,1.853,0,0,1,1.85-1.851h5.52A15.753,15.753,0,0,1,305.216,394.543Z" transform="translate(-282.126 -363.557)" fill="#fff"/>
        <path id="Path_241" data-name="Path 241" d="M441.514,265.75l-3.286-5.54,0,0v0h-2.234a2.775,2.775,0,0,0,0,5.549h5.526Zm-5.525-.923a1.85,1.85,0,0,1,0-3.7h1.8a15.786,15.786,0,0,1,2.35,3.7Z" transform="translate(-409.169 -254.655)" fill="#9affbc"/>
      </g>
      <g id="Group_267" data-name="Group 267" transform="translate(97.206 124.494)" style="isolation: isolate">
        <g id="Group_266" data-name="Group 266" transform="translate(0 0)">
          <path id="Path_242" data-name="Path 242" d="M498.265,533.375a23.08,23.08,0,0,1-2.651,2.51.925.925,0,0,0,1.161,1.44,24.956,24.956,0,0,0,2.865-2.711.925.925,0,0,0-1.374-1.238Z" transform="translate(-458.454 -495.283)" fill="#731013"/>
          <path id="Path_243" data-name="Path 243" d="M562.059,445.741a21.891,21.891,0,0,1-1.449,3.342.925.925,0,0,0,1.63.874,23.709,23.709,0,0,0,1.572-3.625.925.925,0,1,0-1.753-.59Z" transform="translate(-517.652 -415.459)" fill="#731013"/>
          <path id="Path_244" data-name="Path 244" d="M588.512,343.788a.925.925,0,0,0-.813,1.024,20.6,20.6,0,0,1,.134,2.338c0,.429-.014.864-.041,1.292a.925.925,0,1,0,1.846.117c.03-.467.044-.941.044-1.409a22.433,22.433,0,0,0-.146-2.549.925.925,0,0,0-1.024-.813Z" transform="translate(-542.33 -323.501)" fill="#731013"/>
          <path id="Path_245" data-name="Path 245" d="M486.265,173.559a23.046,23.046,0,0,1,2.763,2.386.925.925,0,0,0,1.316-1.3,24.9,24.9,0,0,0-2.986-2.578.925.925,0,0,0-1.094,1.492Z" transform="translate(-449.94 -167.505)" fill="#731013"/>
          <path id="Path_246" data-name="Path 246" d="M307.062,612.89h-.038a20.669,20.669,0,0,1-3.62-.321.925.925,0,0,0-.325,1.821,22.526,22.526,0,0,0,3.945.35h.044a.925.925,0,0,0,0-1.85Z" transform="translate(-283.347 -567.416)" fill="#731013"/>
          <path id="Path_247" data-name="Path 247" d="M408.657,593.922a21.589,21.589,0,0,1-3.417,1.251.925.925,0,0,0,.486,1.785,23.441,23.441,0,0,0,3.71-1.358.925.925,0,0,0-.78-1.677Z" transform="translate(-376.133 -550.428)" fill="#731013"/>
          <path id="Path_248" data-name="Path 248" d="M558.122,251.314a23.946,23.946,0,0,0-1.742-3.544.925.925,0,1,0-1.587.95,22.1,22.1,0,0,1,1.608,3.269.925.925,0,1,0,1.722-.675Z" transform="translate(-512.354 -235.961)" fill="#731013"/>
          <path id="Path_249" data-name="Path 249" d="M200.054,154.958a22.858,22.858,0,0,1,3.1-1.928.925.925,0,1,0-.848-1.644,24.7,24.7,0,0,0-3.35,2.084.925.925,0,1,0,1.1,1.487Z" transform="translate(-189.204 -148.805)" fill="#731013"/>
          <path id="Path_250" data-name="Path 250" d="M292.27,126.841a20.813,20.813,0,0,1,3.6-.5.925.925,0,0,0-.091-1.847,22.66,22.66,0,0,0-3.92.542.925.925,0,1,0,.412,1.8Z" transform="translate(-273.203 -124.494)" fill="#731013"/>
          <path id="Path_251" data-name="Path 251" d="M136.436,501.606a.925.925,0,0,0-.264,1.281A24.884,24.884,0,0,0,138.6,506a.925.925,0,1,0,1.364-1.249,23.046,23.046,0,0,1-2.245-2.879A.925.925,0,0,0,136.436,501.606Z" transform="translate(-132.43 -466.591)" fill="#731013"/>
          <path id="Path_252" data-name="Path 252" d="M133.7,215.333a.925.925,0,0,0-1.3.114,24.745,24.745,0,0,0-2.286,3.215.925.925,0,1,0,1.589.947,22.882,22.882,0,0,1,2.115-2.974.925.925,0,0,0-.114-1.3Z" transform="translate(-126.946 -206.736)" fill="#731013"/>
          <path id="Path_253" data-name="Path 253" d="M99.14,304.93a.925.925,0,0,0-1.148.626,22.561,22.561,0,0,0-.78,3.882.925.925,0,0,0,1.838.2,20.7,20.7,0,0,1,.716-3.563A.925.925,0,0,0,99.14,304.93Z" transform="translate(-97.206 -288.208)" fill="#731013"/>
          <path id="Path_254" data-name="Path 254" d="M209.315,574.14a.925.925,0,1,0-1.033,1.534,24.491,24.491,0,0,0,3.441,1.934.925.925,0,0,0,.772-1.681A22.668,22.668,0,0,1,209.315,574.14Z" transform="translate(-197.639 -532.412)" fill="#731013"/>
          <path id="Path_255" data-name="Path 255" d="M99.516,406.587a.925.925,0,0,0-.766,1.06,22.761,22.761,0,0,0,.967,3.835.925.925,0,1,0,1.748-.606,20.912,20.912,0,0,1-.888-3.522A.925.925,0,0,0,99.516,406.587Z" transform="translate(-98.596 -380.487)" fill="#731013"/>
          <path id="Path_256" data-name="Path 256" d="M397.236,132.535a.925.925,0,1,0,.7-1.713,23.2,23.2,0,0,0-3.776-1.176.925.925,0,1,0-.4,1.807A21.328,21.328,0,0,1,397.236,132.535Z" transform="translate(-365.675 -129.15)" fill="#731013"/>
          <path id="Path_257" data-name="Path 257" d="M180.8,190.213a17.571,17.571,0,1,0,17.571,17.571A17.542,17.542,0,0,0,180.8,190.213Zm2.775,27.743h-5.549a1.85,1.85,0,0,1,0-3.7h7.4a3.7,3.7,0,0,0,3.7-3.7,1.853,1.853,0,0,1,1.85-1.851h5.52a15.753,15.753,0,0,1-9.25,13.416,3.694,3.694,0,0,0-3.669-4.167Zm-2.775,5.549a15.742,15.742,0,0,1-15.694-14.8h3.564a3.716,3.716,0,0,0,3.808-3.65,1.848,1.848,0,0,1,1.849-1.9h5.548a3.7,3.7,0,0,0,0-7.4h-1.85A1.807,1.807,0,0,1,176.17,194a3.685,3.685,0,0,0-.165-1.189,15.7,15.7,0,0,1,14.91,2.954,3.7,3.7,0,0,0,.053,7.4h4.854a15.62,15.62,0,0,1,.666,3.7h-5.52a3.7,3.7,0,0,0-3.7,3.7,1.851,1.851,0,0,1-1.85,1.849h-7.4a3.7,3.7,0,0,0,0,7.4h5.549a1.849,1.849,0,0,1,1.3,3.162A15.691,15.691,0,0,1,180.8,223.506Zm-6.474-29.55a3.653,3.653,0,0,0,3.7,3.655h1.85a1.85,1.85,0,1,1,0,3.7h-5.548a3.7,3.7,0,0,0-3.7,3.8,1.881,1.881,0,0,1-1.958,1.753H165.1a15.751,15.751,0,0,1,9.17-13.378A1.885,1.885,0,0,1,174.321,193.956Zm16.647,7.354a1.85,1.85,0,1,1,0-3.7h1.8a15.786,15.786,0,0,1,2.35,3.7Z" transform="translate(-157.118 -184.135)" fill="#731013"/>
        </g>
      </g>
    </g>
  </g>
</svg>
