<svg xmlns="http://www.w3.org/2000/svg" width="75" height="75" viewBox="0 0 75 75">
  <g id="Group_300" data-name="Group 300" transform="translate(-1286 -1631)">
    <circle id="Ellipse_3" data-name="Ellipse 3" cx="37.5" cy="37.5" r="37.5" transform="translate(1286 1631)" fill="#ebebec"/>
    <g id="Group_278" data-name="Group 278" transform="translate(1304.781 1649.781)">
      <path id="Path_269" data-name="Path 269" d="M1560.794,190.463V228.9h24.375V190.463Zm5.156,23.125h4.688a.782.782,0,0,1,.781.781v4.688a.782.782,0,0,1-.781.781h-4.687a.782.782,0,0,1-.781-.781v-4.687A.782.782,0,0,1,1565.95,213.588Zm5.469-13.281v4.688a.782.782,0,0,1-.781.781h-4.687a.782.782,0,0,1-.781-.781v-4.687a.782.782,0,0,1,.781-.781h4.688A.782.782,0,0,1,1571.419,200.307Zm-1.562-9.062h6.25v2.812a.782.782,0,0,1-.781.781h-4.687a.783.783,0,0,1-.781-.781Z" transform="translate(-1560.794 -190.463)" fill="#c79fa1" style="isolation: isolate"/>
      <path id="Path_270" data-name="Path 270" d="M1666.794,190.463v3.594a1.563,1.563,0,0,0,1.563,1.563h4.688a1.563,1.563,0,0,0,1.563-1.563v-3.594Zm7.031,3.594a.782.782,0,0,1-.781.781h-4.687a.783.783,0,0,1-.781-.781v-2.812h6.25Z" transform="translate(-1658.513 -190.463)" fill="#fff"/>
      <g id="Group_277" data-name="Group 277" transform="translate(29.063 5.156)">
        <g id="Group_276" data-name="Group 276">
          <path id="Path_271" data-name="Path 271" d="M1932.794,556.463v2.344a13.141,13.141,0,0,0,2.344,7.5,13.135,13.135,0,0,0,2.344-7.5v-2.344Zm3.906,2.344a12.726,12.726,0,0,1-1.562,6.072,12.726,12.726,0,0,1-1.562-6.072v-1.562h3.125Z" transform="translate(-1932.794 -533.026)" fill="#fff"/>
          <path id="Path_272" data-name="Path 272" d="M1932.8,316.462h4.688v18.75H1932.8Z" transform="translate(-1932.797 -311.775)" fill="#c79fa1" style="isolation: isolate"/>
          <path id="Path_273" data-name="Path 273" d="M1935.138,256.463a2.344,2.344,0,0,0-2.344,2.344v2.344h4.688v-2.344A2.344,2.344,0,0,0,1935.138,256.463Zm1.563,3.906h-3.125v-1.562a1.563,1.563,0,0,1,3.125,0Z" transform="translate(-1932.794 -256.463)" fill="#fff"/>
        </g>
      </g>
    </g>
    <g id="Group_280" data-name="Group 280" transform="translate(1304 1649)" style="isolation: isolate">
      <path id="Path_274" data-name="Path 274" d="M1575.95,180.463h-24.375a.782.782,0,0,0-.781.781v38.437a.782.782,0,0,0,.781.781h24.375a.782.782,0,0,0,.781-.781V181.244A.782.782,0,0,0,1575.95,180.463Zm-.781,38.437h-22.812V182.025h6.719v2.812a2.347,2.347,0,0,0,2.344,2.344h4.688a2.347,2.347,0,0,0,2.344-2.344v-2.812h6.719Zm-14.531-34.062v-2.812h6.25v2.812a.782.782,0,0,1-.781.781h-4.687A.783.783,0,0,1,1560.638,184.838Z" transform="translate(-1550.794 -180.463)" fill="#731013"/>
      <path id="Path_275" data-name="Path 275" d="M1737.578,306.462a.781.781,0,0,0,0,1.563h4.688a.781.781,0,0,0,0-1.562Z" transform="translate(-1722.266 -296.618)" fill="#731013"/>
      <path id="Path_276" data-name="Path 276" d="M1742.266,366.462h-4.687a.781.781,0,0,0,0,1.563h4.688a.781.781,0,0,0,0-1.562Z" transform="translate(-1722.266 -351.931)" fill="#731013"/>
      <path id="Path_277" data-name="Path 277" d="M1631.641,426.462h-14.062a.781.781,0,0,0,0,1.563h14.063a.781.781,0,0,0,0-1.562Z" transform="translate(-1611.641 -407.243)" fill="#731013"/>
      <g id="Group_279" data-name="Group 279" transform="translate(5.156 5.156)">
        <path id="Path_278" data-name="Path 278" d="M1742.266,486.462h-4.687a.781.781,0,0,0,0,1.563h4.688a.781.781,0,0,0,0-1.562Z" transform="translate(-1727.422 -467.712)" fill="#731013"/>
        <path id="Path_279" data-name="Path 279" d="M1742.266,546.462h-4.687a.781.781,0,0,0,0,1.563h4.688a.781.781,0,0,0,0-1.562Z" transform="translate(-1727.422 -523.025)" fill="#731013"/>
        <path id="Path_280" data-name="Path 280" d="M1631.641,606.462h-14.062a.781.781,0,0,0,0,1.563h14.063a.781.781,0,0,0,0-1.562Z" transform="translate(-1616.797 -578.337)" fill="#731013"/>
        <path id="Path_281" data-name="Path 281" d="M1929.825,251.15h-.781v-1.562a3.125,3.125,0,1,0-6.25,0v23.437a13.893,13.893,0,0,0,2.5,7.969.781.781,0,0,0,1.25,0,13.893,13.893,0,0,0,2.5-7.969V252.713h.781a2.347,2.347,0,0,1,2.344,2.344v6.25a.781.781,0,0,0,1.563,0v-6.25A3.911,3.911,0,0,0,1929.825,251.15Zm-2.344,21.875a12.726,12.726,0,0,1-1.562,6.072,12.726,12.726,0,0,1-1.562-6.072v-1.562h3.125Zm0-3.125h-3.125V252.713h3.125Zm-3.125-20.312a1.563,1.563,0,0,1,3.125,0v1.563h-3.125Z" transform="translate(-1898.888 -246.463)" fill="#731013"/>
      </g>
    </g>
  </g>
</svg>
