<svg xmlns="http://www.w3.org/2000/svg" width="75" height="75" viewBox="0 0 75 75"><defs><style>.a{fill:#ebebec;}.b,.d{fill:none;stroke-miterlimit:10;stroke-width:2px;}.b{stroke:#731013;}.c{fill:#018e42;}.d{stroke:#018e42;}.e{fill:#731013;}</style></defs><g transform="translate(-10395 -2168)"><circle class="a" cx="37.5" cy="37.5" r="37.5" transform="translate(10395 2168)"/><rect class="b" width="18.308" height="19.068" transform="translate(10423.348 2196.597)"/><rect class="c" width="6.357" height="6.656" transform="translate(10429.322 2202.803)"/><g transform="translate(10234.785 2166.505)"><ellipse class="b" cx="1.27" cy="1.3" rx="1.27" ry="1.3" transform="translate(196.446 14.421)"/><line class="b" y2="12.595" transform="translate(197.716 17.018)"/><line class="d" x2="5.442" transform="translate(194.995 23.524)"/><ellipse class="b" cx="1.27" cy="1.3" rx="1.27" ry="1.3" transform="translate(190.638 17.309)"/><path class="b" d="M192.882,19.689l2.188,2.241v4.085"/><ellipse class="b" cx="1.27" cy="1.3" rx="1.27" ry="1.3" transform="translate(202.254 17.309)"/><path class="b" d="M202.55,19.689l-2.188,2.241v4.085"/></g><g transform="translate(10234.785 2166.505)"><ellipse class="b" cx="1.27" cy="1.3" rx="1.27" ry="1.3" transform="translate(173.715 37.693)"/><line class="b" x2="12.301" transform="translate(176.251 38.994)"/><line class="d" y1="5.572" transform="translate(182.605 36.208)"/><ellipse class="b" cx="1.27" cy="1.3" rx="1.27" ry="1.3" transform="translate(176.535 43.64)"/><path class="b" d="M178.86,43.944l2.188-2.241h3.99"/><ellipse class="b" cx="1.27" cy="1.3" rx="1.27" ry="1.3" transform="translate(176.535 31.746)"/><path class="b" d="M178.86,34.044l2.188,2.241h3.99"/></g><g transform="translate(10234.785 2166.505)"><ellipse class="b" cx="1.27" cy="1.3" rx="1.27" ry="1.3" transform="translate(196.443 60.969)"/><line class="b" y1="12.595" transform="translate(197.713 48.377)"/><line class="d" x1="5.442" transform="translate(194.992 54.465)"/><ellipse class="b" cx="1.27" cy="1.3" rx="1.27" ry="1.3" transform="translate(202.251 58.08)"/><path class="b" d="M202.547,58.3l-2.188-2.241V51.975"/><ellipse class="b" cx="1.27" cy="1.3" rx="1.27" ry="1.3" transform="translate(190.635 58.08)"/><path class="b" d="M192.879,58.3l2.188-2.241V51.975"/></g><g transform="translate(10234.785 2166.505)"><ellipse class="b" cx="1.27" cy="1.3" rx="1.27" ry="1.3" transform="translate(219.175 37.696)"/><line class="b" x1="12.301" transform="translate(206.877 38.996)"/><line class="d" y2="5.572" transform="translate(212.824 36.21)"/><ellipse class="b" cx="1.27" cy="1.3" rx="1.27" ry="1.3" transform="translate(216.354 31.749)"/><path class="b" d="M216.569,34.046l-2.188,2.241h-3.99"/><ellipse class="b" cx="1.27" cy="1.3" rx="1.27" ry="1.3" transform="translate(216.354 43.643)"/><path class="b" d="M216.569,43.946l-2.188-2.241h-3.99"/></g><g transform="translate(10234.785 2166.505)"><ellipse class="e" cx="1.581" cy="1.619" rx="1.581" ry="1.619" transform="translate(181.57 22.947)"/><line class="b" x1="5.085" y1="5.085" transform="translate(183.474 24.938)"/></g><g transform="translate(10234.785 2166.505)"><ellipse class="e" cx="1.581" cy="1.619" rx="1.581" ry="1.619" transform="translate(181.419 52.853)"/><line class="b" x1="4.966" y2="5.206" transform="translate(183.364 48.935)"/></g><g transform="translate(10234.785 2166.505)"><ellipse class="e" cx="1.581" cy="1.619" rx="1.581" ry="1.619" transform="translate(210.627 53.008)"/><line class="b" x2="5.085" y2="5.085" transform="translate(206.801 49.17)"/></g><g transform="translate(10234.785 2166.505)"><ellipse class="e" cx="1.581" cy="1.619" rx="1.581" ry="1.619" transform="translate(210.778 23.101)"/><line class="b" y1="5.206" x2="4.966" transform="translate(207.03 25.051)"/></g></g></svg>