<svg xmlns="http://www.w3.org/2000/svg" width="75" height="75" viewBox="0 0 75 75">
  <g id="Group_299" data-name="Group 299" transform="translate(-924 -1631)">
    <circle id="Ellipse_3" data-name="Ellipse 3" cx="37.5" cy="37.5" r="37.5" transform="translate(924 1631)" fill="#ebebec"/>
    <g id="Group_275" data-name="Group 275" transform="translate(125.176 1470.007)">
      <g id="Group_272" data-name="Group 272" transform="translate(817.576 181.245)">
        <g id="Group_271" data-name="Group 271">
          <path id="Path_258" data-name="Path 258" d="M826.794,190.463v30.2h38.495v-30.2Zm15.335,8.059a2.347,2.347,0,0,1,4.695,0,2.315,2.315,0,0,1-.23,1.01,2.349,2.349,0,0,1-1.106,1.107,2.336,2.336,0,0,1-2.022,0,2.35,2.35,0,0,1-1.106-1.106A2.318,2.318,0,0,1,842.129,198.522Zm10.724,5.248a2.318,2.318,0,0,1,.23,1.011,2.347,2.347,0,0,1-4.695,0,2.316,2.316,0,0,1,.23-1.011,2.347,2.347,0,0,1,1.107-1.106,2.334,2.334,0,0,1,2.021,0A2.35,2.35,0,0,1,852.853,203.77Zm3.36,11.182v-7.824h1.565v7.824Zm-4.694-3.13v3.13h-1.565v-3.13Zm-6.259-4.694v7.824h-1.565v-7.824ZM839,211.823v3.13h-1.565v-3.13Zm1.335-8.053a2.32,2.32,0,0,1,.23,1.011,2.347,2.347,0,1,1-2.347-2.347,2.317,2.317,0,0,1,1.011.23A2.351,2.351,0,0,1,840.335,203.77Zm16.661-2.9a2.318,2.318,0,0,1-1.011-.23,2.349,2.349,0,0,1-1.106-1.106,2.317,2.317,0,0,1-.23-1.011A2.347,2.347,0,1,1,857,200.869Z" transform="translate(-826.794 -190.463)" fill="#feed9a" style="isolation: isolate"/>
          <g id="Group_270" data-name="Group 270" transform="translate(9.858 15.883)">
            <path id="Path_259" data-name="Path 259" d="M1032.794,576.463v8.294h6.259v-8.294Zm5.477,7.511h-4.694v-6.729h4.694Z" transform="translate(-1026.535 -562.145)" fill="#fff"/>
            <g id="Group_269" data-name="Group 269">
              <path id="Path_260" data-name="Path 260" d="M952.794,453.463v4.694h3.13v-4.694Zm2.347,3.912h-1.565v-3.13h1.565Z" transform="translate(-952.794 -448.769)" fill="#fff"/>
              <path id="Path_261" data-name="Path 261" d="M1032.794,393.463v9.389h3.13v-9.389Zm2.347,8.607h-1.565v-7.824h1.565Z" transform="translate(-1026.535 -393.463)" fill="#fff"/>
              <path id="Path_262" data-name="Path 262" d="M1112.794,453.463v4.694h3.13v-4.694Zm2.347,3.912h-1.565v-3.13h1.565Z" transform="translate(-1100.275 -448.769)" fill="#fff"/>
              <path id="Path_263" data-name="Path 263" d="M1192.794,393.463v9.389h3.13v-9.389Zm2.347,8.607h-1.565v-7.824h1.565Z" transform="translate(-1174.016 -393.463)" fill="#fff"/>
            </g>
          </g>
        </g>
      </g>
      <g id="Group_274" data-name="Group 274" transform="translate(816.794 180.463)" style="isolation: isolate">
        <g id="Group_273" data-name="Group 273">
          <path id="Path_264" data-name="Path 264" d="M856.071,180.463H817.576a.783.783,0,0,0-.782.782v30.2a.783.783,0,0,0,.782.782h15.335v6.729H829a.782.782,0,1,0,0,1.565h15.648a.782.782,0,0,0,0-1.565h-3.912v-6.729h15.335a.783.783,0,0,0,.782-.782v-30.2A.783.783,0,0,0,856.071,180.463Zm-.783,30.2h-36.93V182.028h36.93Zm-16.118,8.294h-4.695v-6.729h4.695Z" transform="translate(-816.794 -180.463)" fill="#731013"/>
          <path id="Path_265" data-name="Path 265" d="M989.952,307.489l-3.131,3.131a2.35,2.35,0,0,0-1.106-1.106l3.131-3.131A2.35,2.35,0,0,0,989.952,307.489Z" transform="translate(-972.497 -296.531)" fill="#731013"/>
          <path id="Path_266" data-name="Path 266" d="M1069.953,309.505a2.348,2.348,0,0,0-1.107,1.106l-3.131-3.131a2.347,2.347,0,0,0,1.106-1.107Z" transform="translate(-1046.238 -296.522)" fill="#731013"/>
          <path id="Path_267" data-name="Path 267" d="M1149.952,307.489l-3.131,3.131a2.35,2.35,0,0,0-1.106-1.106l3.131-3.131A2.351,2.351,0,0,0,1149.952,307.489Z" transform="translate(-1119.979 -296.531)" fill="#731013"/>
          <path id="Path_268" data-name="Path 268" d="M928.614,254.417h-3.13a.783.783,0,0,0-.782.782v8.607h-1.565v-3.912a.783.783,0,0,0-.782-.782h-3.13a.783.783,0,0,0-.782.782v3.912h-1.565V255.2a.783.783,0,0,0-.782-.782h-3.13a.783.783,0,0,0-.783.782v8.607h-1.565v-3.912a.783.783,0,0,0-.783-.782h-3.13a.783.783,0,0,0-.782.782v3.912h-1.565v-19.56a.782.782,0,0,0-1.565,0v20.343a.783.783,0,0,0,.782.782h25.037a.783.783,0,0,0,.782-.782V255.2A.783.783,0,0,0,928.614,254.417Zm-19.56,9.389h-1.565v-3.13h1.565Zm6.259,0h-1.565v-7.824h1.565Zm6.259,0h-1.565v-3.13h1.565Zm6.259,0h-1.565v-7.824h1.565Z" transform="translate(-896.065 -238.534)" fill="#731013"/>
        </g>
      </g>
    </g>
  </g>
</svg>
