<svg xmlns="http://www.w3.org/2000/svg" width="75" height="75" viewBox="0 0 75 75"><defs><style>.a{fill:#ebebec;}.b{fill:#aeffd4;}.b,.c,.d,.e{stroke:#731013;stroke-width:2px;}.b,.c,.e{stroke-miterlimit:10;}.c,.e{fill:none;}.c{stroke-linecap:round;}.d{fill:#feed9a;}</style></defs><g transform="translate(-9671 -2168)"><circle class="a" cx="37.5" cy="37.5" r="37.5" transform="translate(9671 2168)"/><g transform="translate(9682.771 2184.404)"><circle class="b" cx="19.884" cy="19.884" r="19.884" transform="translate(4.532 -8.804)"/><path class="c" d="M37.766,16.71a14.485,14.485,0,1,1,.125-10.955"/><path class="d" d="M25,1.449l1.843,5.673a.615.615,0,0,0,.585.425H33.4a.615.615,0,0,1,.361,1.113L28.93,12.166a.616.616,0,0,0-.223.688l1.843,5.673a.615.615,0,0,1-.947.688l-4.825-3.506a.615.615,0,0,0-.724,0l-4.825,3.506a.615.615,0,0,1-.947-.688l1.843-5.673a.616.616,0,0,0-.223-.688L15.076,8.66a.615.615,0,0,1,.361-1.113H21.4a.615.615,0,0,0,.585-.425l1.843-5.673A.615.615,0,0,1,25,1.449Z"/><path class="e" d="M9.237,23.95,2.282,45.166a1.068,1.068,0,0,0,1.147,1.386l6.361-.779a1.07,1.07,0,0,1,.852.272l4.725,4.33a1.069,1.069,0,0,0,1.739-.462l4.747-14.826"/><path class="e" d="M26.059,30.964,35.2,50.4a1.068,1.068,0,0,0,1.789.189l4-5a1.068,1.068,0,0,1,.8-.4l6.4-.208a1.068,1.068,0,0,0,.921-1.545l-6.97-13.921"/></g></g></svg>